sean_book.sfdir

StartChar: exclam
Encoding: 33 33 1
Width: 407
Flags: MW
HStem: 0 21G<202 256 202 202> 702 20G<201 256 256 256>
VStem: 202 54<0 132 0 132>
LayerCount: 2
Fore
SplineSet
205 229 m 1
 201 722 l 1
 256 722 l 1
 255 229 l 1
 205 229 l 1
202 132 m 1
 256 132 l 1
 256 0 l 1
 202 0 l 1
 202 132 l 1
EndSplineSet
EndChar

StartChar: quotedbl
Encoding: 34 34 2
Width: 440
Flags: MW
HStem: 658 188<85 177 124 136 124 269 307 320>
VStem: 85 275<658 846>
LayerCount: 2
Fore
SplineSet
269 658 m 1
 307 846 l 1
 360 846 l 1
 320 658 l 1
 269 658 l 1
85 658 m 1
 124 846 l 1
 177 846 l 1
 136 658 l 1
 85 658 l 1
EndSplineSet
EndChar

StartChar: numbersign
Encoding: 35 35 3
Width: 656
Flags: MW
HStem: 237 45<47 58> 250 45<408 423> 458 46<212 226> 468 45<477 491>
LayerCount: 2
Fore
SplineSet
47 237 m 1x80
 58 282 l 1
 159 286 l 1
 212 458 l 1
 115 455 l 1
 126 500 l 1
 226 504 l 1xa0
 289 706 l 1
 335 706 l 1
 273 505 l 1
 444 511 l 1
 510 720 l 1
 556 720 l 1
 491 513 l 1
 580 516 l 1
 573 471 l 1
 477 468 l 1
 423 295 l 1
 511 298 l 1
 502 253 l 1
 408 250 l 1x50
 342 38 l 1
 296 38 l 1
 362 248 l 1
 192 242 l 1
 126 30 l 1
 80 30 l 1
 145 240 l 1
 47 237 l 1x80
259 460 m 1
 206 287 l 1
 376 293 l 1
 430 466 l 1
 259 460 l 1
EndSplineSet
EndChar

StartChar: quotesingle
Encoding: 39 39 4
Width: 256
Flags: MW
HStem: 658 188<90 180 129 140>
VStem: 90 90
LayerCount: 2
Fore
SplineSet
90 658 m 1
 129 846 l 1
 180 846 l 1
 140 658 l 1
 90 658 l 1
EndSplineSet
EndChar

StartChar: parenleft
Encoding: 40 40 5
Width: 449
Flags: MW
VStem: 72 52<223 435.5 223 440>
LayerCount: 2
Fore
SplineSet
356 879 m 1
 210 735 124 545 124 326 c 0
 124 120 205 -78 352 -225 c 1
 314 -263 l 1
 159 -106 72 106 72 326 c 0
 72 554 160 757 314 912 c 1
 356 879 l 1
EndSplineSet
EndChar

StartChar: parenright
Encoding: 41 41 6
Width: 450
Flags: MW
VStem: 310 53<211 427.5>
LayerCount: 2
Fore
SplineSet
310 317 m 0
 310 538 224 731 73 875 c 1
 110 913 l 1
 271 760 363 556 363 319 c 0
 363 95 271 -120 108 -276 c 1
 66 -243 l 1
 221 -98 310 105 310 317 c 0
EndSplineSet
EndChar

StartChar: plus
Encoding: 43 43 7
Width: 753
Flags: MW
HStem: 297 50<91 357 91 357>
VStem: 357 51<18 297>
LayerCount: 2
Fore
SplineSet
91 297 m 1
 91 347 l 1
 357 347 l 1
 358 588 l 1
 409 588 l 1
 409 347 l 1
 664 347 l 1
 664 296 l 1
 408 296 l 1
 408 18 l 1
 356 18 l 1
 357 297 l 1
 91 297 l 1
EndSplineSet
EndChar

StartChar: comma
Encoding: 44 44 8
Width: 326
Flags: MW
HStem: -106 198<59 220 59 220>
VStem: 59 161
LayerCount: 2
Fore
SplineSet
59 -106 m 1
 162 92 l 1
 220 92 l 1
 106 -106 l 1
 59 -106 l 1
EndSplineSet
EndChar

StartChar: hyphen
Encoding: 45 45 9
Width: 391
Flags: MW
HStem: 246 51<54 340 54 340>
VStem: 54 286<246 297 246 297>
LayerCount: 2
Fore
SplineSet
54 297 m 1
 340 297 l 1
 340 246 l 1
 54 246 l 1
 54 297 l 1
EndSplineSet
EndChar

StartChar: period
Encoding: 46 46 10
Width: 329
Flags: MW
HStem: 0 154<138 194 138 194>
VStem: 138 56<0 154 0 154>
LayerCount: 2
Fore
SplineSet
138 154 m 1
 194 154 l 1
 194 0 l 1
 138 0 l 1
 138 154 l 1
EndSplineSet
EndChar

StartChar: slash
Encoding: 47 47 11
Width: 567
Flags: W
LayerCount: 2
Fore
SplineSet
107 -68 m 1
 53 -68 l 1
 472 844 l 1
 527 844 l 1
 107 -68 l 1
EndSplineSet
EndChar

StartChar: zero
Encoding: 48 48 12
Width: 576
Flags: MW
HStem: -9 52<236 339 236 355> 480 53<289 290 290 344>
VStem: 62 55<205.5 320.5 205.5 336> 464 53<209 325>
LayerCount: 2
Fore
SplineSet
117 263 m 0
 117 148 184 43 288 43 c 0
 390 43 464 149 464 269 c 0
 464 381 397 480 291 480 c 0
 186 480 117 378 117 263 c 0
290 -9 m 0
 159 -9 62 117 62 265 c 0
 62 407 155 533 289 533 c 2
 290 533 l 2
 424 533 517 407 517 265 c 0
 517 117 420 -9 290 -9 c 0
EndSplineSet
EndChar

StartChar: one
Encoding: 49 49 13
Width: 314
Flags: MW
HStem: 0 21G<185 240 185 185>
VStem: 185 55<0 412>
LayerCount: 2
Fore
SplineSet
185 477 m 1
 239 477 l 1
 240 0 l 1
 185 0 l 1
 185 412 l 1
 19 278 l 1
 -15 315 l 1
 185 477 l 1
EndSplineSet
EndChar

StartChar: two
Encoding: 50 50 14
Width: 446
Flags: MW
HStem: 21 51<8 77 173 447 8 77> 489 52<176.5 249>
VStem: 330 49<352 393.5>
LayerCount: 2
Fore
SplineSet
330 360 m 0
 330 427 289 489 209 489 c 0
 144 489 99 433 58 369 c 1
 19 398 l 1
 71 478 132 541 213 541 c 0
 322 541 379 456 379 366 c 0
 379 338 374 309 364 279 c 0
 331 175 264 104 173 72 c 1
 447 72 l 1
 447 21 l 1
 8 21 l 1
 8 72 l 1
 146 72 249 138 307 263 c 0
 323 296 330 329 330 360 c 0
EndSplineSet
EndChar

StartChar: three
Encoding: 51 51 15
Width: 537
Flags: MW
HStem: -244 49<173.5 244 173.5 261> 105 50<135 177 135 200.5> 467 50<168 246.5>
VStem: 375 53<282.5 369> 409 57<-83 -28>
LayerCount: 2
Fore
SplineSet
375 321 m 0xf0
 375 417 298 467 195 467 c 0
 137 467 86 445 41 400 c 1
 20 436 l 1
 73 490 134 517 202 517 c 0
 332 517 428 449 428 324 c 0xf0
 428 241 382 178 309 142 c 1
 384 124 466 64 466 -39 c 0
 466 -157 326 -244 196 -244 c 0
 146 -244 96 -233 50 -210 c 1
 70 -163 l 1
 109 -184 152 -195 195 -195 c 0
 293 -195 409 -130 409 -36 c 0xe8
 409 -20 405 -3 398 14 c 0
 360 100 274 105 177 105 c 2
 135 105 l 1
 135 155 l 1
 266 155 375 210 375 321 c 0xf0
EndSplineSet
EndChar

StartChar: four
Encoding: 52 52 16
Width: 610
Flags: MW
HStem: 56 51<74 376 11 11 431 597> 507 20G<377 432 432 432>
VStem: 376 55<-222 56 56 56 56 107>
LayerCount: 2
Fore
SplineSet
74 107 m 1
 376 107 l 1
 377 456 l 1
 74 107 l 1
11 107 m 1
 377 527 l 1
 432 527 l 1
 432 387 431 247 431 107 c 1
 597 107 l 1
 597 56 l 1
 431 56 l 1
 430 -222 l 1
 376 -222 l 1
 376 56 l 1
 11 56 l 1
 11 107 l 1
EndSplineSet
EndChar

StartChar: five
Encoding: 53 53 17
Width: 511
Flags: MW
HStem: -244 53<214 288.5 213.5 307> 177 51<218 277> 483 51<150 439 150 150>
VStem: 96 52<170 170> 422 53<-62.5 51.5>
LayerCount: 2
Fore
SplineSet
231 228 m 0
 364 228 475 145 475 -15 c 0
 475 -146 374 -244 240 -244 c 0
 188 -244 131 -229 74 -196 c 1
 98 -151 l 1
 146 -179 192 -191 235 -191 c 0
 342 -191 422 -113 422 -12 c 0
 422 115 330 177 224 177 c 0
 200 177 175 175 148 170 c 1
 96 170 l 1
 97 534 l 1
 439 534 l 1
 439 483 l 1
 150 483 l 1
 148 220 l 1
 177 225 205 228 231 228 c 0
EndSplineSet
EndChar

StartChar: six
Encoding: 54 54 18
Width: 590
Flags: MW
HStem: -8 56<263 353.5 263 367.5> 320 45<271.5 339> 673 48<511 532>
VStem: 461 59<143 221>
LayerCount: 2
Fore
SplineSet
511 721 m 1
 532 673 l 1
 427 641 332 584 252 509 c 0
 189 449 136 375 124 294 c 1
 173 340 238 365 305 365 c 0
 421 365 520 298 520 182 c 0
 520 77 425 -8 310 -8 c 0
 167 -8 69 108 69 250 c 0
 69 354 125 450 199 528 c 0
 285 617 393 684 511 721 c 1
461 180 m 0
 461 262 385 320 293 320 c 0
 226 320 163 288 123 234 c 1
 134 129 213 48 313 48 c 0
 394 48 461 106 461 180 c 0
EndSplineSet
EndChar

StartChar: seven
Encoding: 55 55 19
Width: 568
Flags: MW
HStem: 437 53<71 469 71 71>
LayerCount: 2
Fore
SplineSet
71 490 m 1
 528 489 l 1
 528 437 l 1
 152 -222 l 1
 95 -222 l 1
 469 437 l 1
 71 437 l 1
 71 490 l 1
EndSplineSet
EndChar

StartChar: eight
Encoding: 56 56 20
Width: 578
Flags: MW
HStem: -18 49<262.5 339 262.5 346> 616 51<256.5 323.5>
VStem: 97 53<120.5 194.5 120.5 194.5> 112 49<478.5 546.5 478.5 559.5> 427 52<473.5 541.5> 448 46<114.5 190.5>
LayerCount: 2
Fore
SplineSet
288 616 m 0xd8
 225 616 161 582 161 511 c 0
 161 446 229 399 301 364 c 1
 365 397 427 442 427 505 c 0
 427 578 359 616 288 616 c 0xd8
292 -18 m 0
 187 -18 97 53 97 151 c 0xe4
 97 238 169 294 249 337 c 1
 175 377 112 435 112 512 c 0
 112 607 200 667 293 667 c 0
 392 667 479 604 479 509 c 0xd8
 479 435 421 377 351 340 c 1
 427 301 494 245 494 157 c 0xc4
 494 56 400 -18 292 -18 c 0
302 31 m 0
 376 31 448 76 448 153 c 0
 448 228 373 276 298 313 c 1
 224 276 150 231 150 158 c 0
 150 83 223 31 302 31 c 0
EndSplineSet
EndChar

StartChar: nine
Encoding: 57 57 21
Width: 596
Flags: MW
HStem: -216 51<86 107> 97 52<260.5 322> 433 57<245 336.5>
VStem: 82 59<253 333 253 345.5> 466 53
LayerCount: 2
Fore
SplineSet
289 490 m 0
 432 490 519 366 519 235 c 0
 519 125 460 27 382 -50 c 0
 305 -127 210 -184 107 -216 c 1
 86 -165 l 1
 187 -135 278 -80 352 -5 c 0
 400 43 440 100 457 163 c 1
 413 121 353 97 291 97 c 0
 175 97 82 174 82 291 c 0
 82 400 175 490 289 490 c 0
141 295 m 0
 141 211 215 149 306 149 c 0
 371 149 431 182 466 237 c 1
 462 345 387 433 286 433 c 0
 204 433 141 371 141 295 c 0
EndSplineSet
EndChar

StartChar: colon
Encoding: 58 58 22
Width: 354
Flags: MW
HStem: 0 21G<154 208 154 154>
VStem: 154 54<0 148 0 148 341 488>
LayerCount: 2
Fore
SplineSet
154 148 m 1
 208 148 l 1
 208 0 l 1
 154 0 l 1
 154 148 l 1
154 488 m 1
 208 488 l 1
 208 341 l 1
 154 341 l 1
 154 488 l 1
EndSplineSet
EndChar

StartChar: semicolon
Encoding: 59 59 23
Width: 326
Flags: MW
VStem: 157 54<341 488 341 488>
LayerCount: 2
Fore
SplineSet
157 341 m 1
 157 488 l 1
 211 488 l 1
 211 341 l 1
 157 341 l 1
57 -95 m 1
 163 92 l 1
 219 92 l 1
 108 -95 l 1
 57 -95 l 1
EndSplineSet
EndChar

StartChar: less
Encoding: 60 60 24
Width: 816
Flags: W
LayerCount: 2
Fore
SplineSet
163 301 m 1
 711 63 l 1
 711 9 l 1
 102 273 l 1
 102 327 l 1
 701 597 l 1
 701 543 l 1
 163 301 l 1
EndSplineSet
EndChar

StartChar: equal
Encoding: 61 61 25
Width: 837
Flags: MW
HStem: 192 51<104 724 104 724> 414 51<104 724 104 724>
LayerCount: 2
Fore
SplineSet
104 243 m 1
 724 243 l 1
 724 192 l 1
 104 192 l 1
 104 243 l 1
104 465 m 1
 724 465 l 1
 724 414 l 1
 104 414 l 1
 104 465 l 1
EndSplineSet
EndChar

StartChar: greater
Encoding: 62 62 26
Width: 816
Flags: W
LayerCount: 2
Fore
SplineSet
119 9 m 1
 119 63 l 1
 658 301 l 1
 104 543 l 1
 104 597 l 1
 720 328 l 1
 720 274 l 1
 119 9 l 1
EndSplineSet
EndChar

StartChar: question
Encoding: 63 63 27
Width: 551
Flags: MW
HStem: 677 49<260.5 313>
VStem: 230 58<-10 130> 427 49<470 566>
LayerCount: 2
Fore
SplineSet
476 520 m 0
 476 400 387 331 287 312 c 1
 287 226 l 1
 233 226 l 1
 233 358 l 1
 332 358 427 418 427 522 c 0
 427 610 354 677 272 677 c 0
 249 677 225 672 202 660 c 1
 185 708 l 1
 213 721 241 726 269 726 c 0
 380 726 476 635 476 520 c 0
288 -10 m 1
 230 -10 l 1
 230 130 l 1
 288 130 l 1
 288 -10 l 1
EndSplineSet
EndChar

StartChar: at
Encoding: 64 64 28
Width: 849
Flags: MW
HStem: -148 47<442 444 444 487 442 490> 34 44<607.5 654.5 607.5 664> 49 39<378 428.5> 356 45<401 467> 520 44<347 518>
VStem: 62 47<123.5 299 123.5 309> 246 48<176.5 251 176.5 265.5> 541 45<260 301> 742 47<195.5 323.5>
LayerCount: 2
Fore
SplineSet
742 245 m 0xdf80
 742 402 601 520 435 520 c 0
 259 520 109 386 109 212 c 0
 109 35 261 -101 442 -101 c 2
 444 -101 l 2
 530 -101 613 -69 676 -10 c 1
 708 -45 l 1
 635 -112 539 -148 441 -148 c 0
 235 -148 62 8 62 209 c 0
 62 409 235 564 438 564 c 0
 632 564 789 428 789 249 c 0
 789 126 706 34 622 34 c 0xdf80
 577 34 539 62 523 96 c 1
 492 66 450 49 407 49 c 0xbf80
 312 49 246 120 246 214 c 0
 246 317 334 401 440 401 c 0
 517 401 586 358 586 282 c 0
 586 238 562 197 562 150 c 0
 562 111 588 78 627 78 c 0
 682 78 742 146 742 245 c 0xdf80
294 212 m 0
 294 141 344 88 412 88 c 0xbf80
 453 88 507 116 514 163 c 0
 520 201 541 237 541 273 c 0
 541 329 492 356 442 356 c 0
 360 356 294 290 294 212 c 0
EndSplineSet
EndChar

StartChar: A
Encoding: 65 65 29
Width: 757
Flags: MW
HStem: 0 21G<62 120 62 62> 243 49<251 530 251 546 229 530> 701 20G<389 444 444 444>
LayerCount: 2
Fore
SplineSet
530 292 m 1
 412 650 l 1
 251 292 l 1
 530 292 l 1
546 243 m 1
 229 243 l 1
 120 0 l 1
 62 0 l 1
 389 721 l 1
 444 721 l 1
 681 1 l 1
 625 1 l 1
 546 243 l 1
EndSplineSet
EndChar

StartChar: B
Encoding: 66 66 30
Width: 637
Flags: MW
HStem: 0 50<162 279 162 279> 378 47<162 276 162 276> 672 50<162 274 162 162>
VStem: 107 55<50 50 50 378 425 672> 455 54<514 594> 501 54
LayerCount: 2
Fore
SplineSet
274 722 m 2xf4
 402 722 509 673 509 550 c 0xf8
 509 478 465 428 399 402 c 1
 491 374 555 311 555 209 c 0
 555 71 431 0 279 0 c 2
 107 0 l 1
 107 722 l 1
 274 722 l 2xf4
455 547 m 0
 455 641 371 672 274 672 c 2
 162 672 l 1
 162 425 l 1
 276 425 l 2
 374 425 455 464 455 547 c 0
162 50 m 1
 279 50 l 2
 399 50 499 101 501 211 c 1xf4
 502 324 400 378 276 378 c 2
 162 378 l 1
 162 50 l 1
EndSplineSet
EndChar

StartChar: C
Encoding: 67 67 31
Width: 682
Flags: MW
HStem: -8 52<322.5 452.5 322.5 452.5> 679 52<330 460.5>
VStem: 83 54<260 451 260 465.5>
LayerCount: 2
Fore
SplineSet
405 44 m 0
 500 44 572 76 632 128 c 1
 664 86 l 1
 590 27 506 -8 399 -8 c 0
 202 -8 83 135 83 349 c 0
 83 582 208 731 414 731 c 0
 514 731 589 703 662 656 c 1
 634 612 l 1
 572 655 502 679 419 679 c 0
 241 679 137 550 137 352 c 0
 137 168 240 44 405 44 c 0
EndSplineSet
EndChar

StartChar: D
Encoding: 68 68 32
Width: 699
Flags: MW
HStem: 0 54<135 293 293 313> 668 54<135 278 278 286 135 135>
VStem: 81 54<54 668 54 722> 579 55<253 446>
LayerCount: 2
Fore
SplineSet
278 722 m 2
 507 722 634 586 634 346 c 0
 634 130 527 0 313 0 c 2
 81 0 l 1
 81 722 l 1
 278 722 l 2
579 345 m 0
 579 547 476 668 286 668 c 2
 135 668 l 1
 135 54 l 1
 293 54 l 2
 480 54 579 161 579 345 c 0
EndSplineSet
EndChar

StartChar: E
Encoding: 69 69 33
Width: 611
Flags: MW
HStem: 0 53<166 561 166 561> 347 53<166 448 166 448> 669 53<166 528 166 166>
VStem: 112 54<53 347 400 669>
LayerCount: 2
Fore
SplineSet
112 0 m 1
 112 722 l 1
 528 722 l 1
 528 669 l 1
 166 669 l 1
 166 400 l 1
 448 400 l 1
 448 347 l 1
 166 347 l 1
 166 53 l 1
 561 53 l 1
 561 0 l 1
 112 0 l 1
EndSplineSet
EndChar

StartChar: F
Encoding: 70 70 34
Width: 574
Flags: MW
HStem: 0 21G<112 112 112 166> 347 53<166 462 166 462> 669 53<166 532 166 166>
VStem: 112 54<0 347 400 669>
LayerCount: 2
Fore
SplineSet
112 0 m 1
 112 722 l 1
 532 722 l 1
 532 669 l 1
 166 669 l 1
 166 400 l 1
 462 400 l 1
 462 347 l 1
 166 347 l 1
 166 0 l 1
 112 0 l 1
EndSplineSet
EndChar

StartChar: G
Encoding: 71 71 35
Width: 778
Flags: MW
HStem: -6 49<341 477.5 341 477.5> 281 52<483 661 483 713> 676 54<337 476>
VStem: 82 54 661 52<96 281 281 281>
LayerCount: 2
Fore
SplineSet
435 43 m 0
 520 43 591 61 661 96 c 1
 661 281 l 1
 483 281 l 1
 483 333 l 1
 713 333 l 1
 713 74 l 1
 626 22 531 -6 424 -6 c 0
 205 -6 82 128 82 360 c 0
 82 588 211 730 424 730 c 0
 531 730 614 702 695 653 c 1
 670 607 l 1
 598 651 523 676 429 676 c 0
 245 676 135 554 136 356 c 1
 138 159 247 43 435 43 c 0
EndSplineSet
EndChar

StartChar: H
Encoding: 72 72 36
Width: 757
Flags: MW
HStem: 0 21G<93 148 93 93 611 665 611 611> 336 52<148 611 148 611> 702 20G<94 148 148 148 611 665 665 665>
VStem: 93 55<0 336> 611 54<0 336 336 336 388 722 0 722>
LayerCount: 2
Fore
SplineSet
611 722 m 1
 665 722 l 1
 665 0 l 1
 611 0 l 1
 611 336 l 1
 148 336 l 1
 148 0 l 1
 93 0 l 1
 94 722 l 1
 148 722 l 1
 148 388 l 1
 611 388 l 1
 611 722 l 1
EndSplineSet
EndChar

StartChar: I
Encoding: 73 73 37
Width: 246
Flags: MW
HStem: 0 21G<96 96 96 151> 702 20G<97 151 151 151>
VStem: 96 55<0 722>
LayerCount: 2
Fore
SplineSet
96 0 m 1
 97 722 l 1
 151 722 l 1
 151 0 l 1
 96 0 l 1
EndSplineSet
EndChar

StartChar: J
Encoding: 74 74 38
Width: 307
Flags: MW
HStem: -224 49<21.5 81 21.5 92> 702 20G<157 212 212 212>
VStem: 157 54<-54 722>
LayerCount: 2
Fore
SplineSet
211 0 m 2
 211 -108 149 -224 35 -224 c 0
 -3 -224 -40 -209 -66 -182 c 1
 -41 -138 l 1
 -22 -162 7 -175 36 -175 c 0
 126 -175 157 -79 157 0 c 2
 157 722 l 1
 212 722 l 1
 211 0 l 2
EndSplineSet
EndChar

StartChar: K
Encoding: 75 75 39
Width: 663
Flags: MW
HStem: 0 21G<96 96 96 151 537 537 537 600> 702 20G<96 151 151 151 515 579 579 579>
VStem: 96 55<0 348 419 722>
LayerCount: 2
Fore
SplineSet
96 0 m 1
 96 722 l 1
 151 722 l 1
 151 419 l 1
 515 722 l 1
 579 722 l 1
 183 385 l 1
 600 0 l 1
 537 0 l 1
 151 348 l 1
 151 0 l 1
 96 0 l 1
EndSplineSet
EndChar

StartChar: L
Encoding: 76 76 40
Width: 565
Flags: MW
HStem: 0 53<151 537 151 537> 702 20G<96 151 151 151>
VStem: 96 55<53 722 53 722 53 722>
LayerCount: 2
Fore
SplineSet
96 0 m 1
 96 722 l 1
 151 722 l 1
 151 53 l 1
 537 53 l 1
 537 0 l 1
 96 0 l 1
EndSplineSet
EndChar

StartChar: M
Encoding: 77 77 41
Width: 876
Flags: MW
HStem: 0 21G<63 117 63 63 390 444 390 390 741 795 741 741> 702 20G<117 171 171 171 675 676 676 729 729 729>
LayerCount: 2
Fore
SplineSet
729 722 m 1
 795 0 l 1
 741 0 l 1
 686 612 l 1
 444 0 l 1
 390 0 l 1
 161 605 l 1
 117 0 l 1
 63 0 l 1
 117 722 l 1
 171 722 l 1
 412 57 l 1
 675 722 l 1
 676 722 l 1
 729 722 l 1
EndSplineSet
EndChar

StartChar: N
Encoding: 78 78 42
Width: 767
Flags: MW
HStem: 0 21G<96 96 96 151 628 628 628 682> 702 20G<96 151 151 151 628 682 682 682>
VStem: 96 55<0 644 0 722> 628 54<0 722 78 722 0 722>
LayerCount: 2
Fore
SplineSet
96 0 m 1
 96 722 l 1
 151 722 l 1
 628 78 l 1
 628 722 l 1
 682 722 l 1
 682 0 l 1
 628 0 l 1
 151 644 l 1
 151 0 l 1
 96 0 l 1
EndSplineSet
EndChar

StartChar: O
Encoding: 79 79 43
Width: 759
Flags: MW
HStem: -6 52<298.5 381> 677 51<375 375 375 379>
VStem: 69 53<359 364 364 364> 638 54<274 451.5>
LayerCount: 2
Fore
SplineSet
375 677 m 1
 212 674 122 536 122 358 c 0
 122 181 218 46 379 46 c 0
 551 46 638 185 638 363 c 0
 638 540 545 677 379 677 c 2
 375 677 l 1
381 728 m 0
 582 728 692 567 692 361 c 0
 692 153 578 -5 381 -6 c 0
 185 -6 69 152 69 359 c 2
 69 364 l 1
 71 572 187 728 381 728 c 0
EndSplineSet
EndChar

StartChar: P
Encoding: 80 80 44
Width: 556
Flags: MW
HStem: 0 21G<96 151 96 96> 268 54<255 324 247.5 346> 670 52<151 251 151 151>
VStem: 96 55<0 297 353 670> 454 55<439.5 547.5>
LayerCount: 2
Fore
SplineSet
279 268 m 0
 231 268 191 278 151 297 c 1
 151 0 l 1
 96 0 l 1
 96 722 l 1
 251 722 l 2
 393 722 509 641 509 485 c 0
 509 359 413 268 279 268 c 0
454 487 m 0
 454 608 363 670 251 670 c 2
 151 670 l 1
 151 353 l 1
 187 333 227 322 268 322 c 0
 380 322 454 392 454 487 c 0
EndSplineSet
EndChar

StartChar: Q
Encoding: 81 81 45
Width: 765
Flags: MW
HStem: -239 50<779 779> -6 51 676 52<381 465.5>
VStem: 63 54<273.5 364 364 369 273.5 469> 650 53<269 446>
LayerCount: 2
Fore
SplineSet
424 -4 m 1
 498 -102 624 -183 779 -189 c 1
 779 -239 l 1
 598 -233 448 -128 368 -6 c 1
 180 2 63 157 63 366 c 0
 63 572 183 727 381 728 c 1
 582 728 703 571 703 357 c 0
 703 165 600 16 424 -4 c 1
382 676 m 0
 210 676 118 540 117 369 c 1
 117 364 l 2
 117 183 219 45 384 45 c 0
 560 45 650 183 650 355 c 0
 650 537 549 676 382 676 c 0
EndSplineSet
EndChar

StartChar: R
Encoding: 82 82 46
Width: 679
Flags: MW
HStem: 0 21G<115 169 115 115 617 679 617 617> 324 52<169 262 169 262> 669 53<169 288 169 169>
VStem: 115 54<0 324 376 669> 489 53<479 575.5>
LayerCount: 2
Fore
SplineSet
288 722 m 2
 428 722 542 661 542 526 c 0
 542 432 480 370 390 342 c 1
 679 0 l 1
 617 0 l 1
 336 330 l 1
 312 326 288 324 262 324 c 2
 169 324 l 1
 169 0 l 1
 115 0 l 1
 115 722 l 1
 288 722 l 2
169 376 m 1
 262 376 l 2
 384 376 489 419 489 525 c 0
 489 626 397 669 288 669 c 2
 169 669 l 1
 169 376 l 1
EndSplineSet
EndChar

StartChar: S
Encoding: 83 83 47
Width: 577
Flags: MW
HStem: -6 52<244.5 326 244.5 336> 679 51<237.5 311.5>
VStem: 82 56<525.5 603 525.5 619.5> 445 56<129.5 218>
LayerCount: 2
Fore
SplineSet
457 629 m 1
 404 659 346 679 277 679 c 0
 198 679 138 638 138 568 c 0
 138 483 230 438 308 399 c 0
 403 351 501 286 501 169 c 0
 501 60 400 -6 272 -6 c 0
 196 -6 126 11 60 39 c 1
 79 89 l 1
 143 61 208 46 281 46 c 0
 371 46 445 88 445 171 c 0
 445 265 351 318 265 361 c 0
 179 405 82 460 82 572 c 0
 82 667 167 730 279 730 c 0
 356 730 418 708 477 676 c 1
 457 629 l 1
EndSplineSet
EndChar

StartChar: T
Encoding: 84 84 48
Width: 620
Flags: MW
HStem: 0 21G<263 318 263 263> 674 54<318 621 318 318>
VStem: 263 55<0 674 0 675 0 675>
LayerCount: 2
Fore
SplineSet
-1 675 m 1
 -1 728 l 1
 621 728 l 1
 621 674 l 1
 318 674 l 1
 318 0 l 1
 263 0 l 1
 263 675 l 1
 -1 675 l 1
EndSplineSet
EndChar

StartChar: U
Encoding: 85 85 49
Width: 704
Flags: MW
HStem: -6 54<297 435.5 297 444.5> 702 20G<87 141 141 141 580 634 634 634>
VStem: 87 54<293 304 304 722> 580 54<281 292 292 722>
LayerCount: 2
Fore
SplineSet
87 722 m 1
 141 722 l 1
 141 304 l 2
 141 153 224 48 370 48 c 0
 501 48 580 145 580 281 c 2
 580 722 l 1
 634 722 l 1
 634 292 l 2
 634 117 530 -6 359 -6 c 0
 188 -6 87 116 87 293 c 2
 87 722 l 1
EndSplineSet
EndChar

StartChar: V
Encoding: 86 86 50
Width: 737
Flags: MW
HStem: 0 21G<363 419 363 363> 702 20G<74 130 130 130 652 707 707 707>
LayerCount: 2
Fore
SplineSet
707 722 m 1
 419 0 l 1
 363 0 l 1
 74 722 l 1
 130 722 l 1
 393 75 l 1
 652 722 l 1
 707 722 l 1
EndSplineSet
EndChar

StartChar: W
Encoding: 87 87 51
Width: 967
Flags: MW
HStem: 0 21G<299 348 299 299 657 706 657 657> 702 20G<63 117 117 117 477 522 522 522 854 905 905 905>
LayerCount: 2
Fore
SplineSet
905 722 m 1
 706 0 l 1
 657 0 l 1
 501 636 l 1
 348 0 l 1
 299 0 l 1
 63 722 l 1
 117 722 l 1
 318 78 l 1
 477 722 l 1
 522 722 l 1
 680 83 l 1
 854 722 l 1
 905 722 l 1
EndSplineSet
EndChar

StartChar: X
Encoding: 88 88 52
Width: 690
Flags: MW
HStem: 0 21G<45 102 45 45 561 617 561 561> 702 20G<87 143 143 143 586 643 643 643>
LayerCount: 2
Fore
SplineSet
87 722 m 1
 143 722 l 1
 347 411 l 1
 586 722 l 1
 643 722 l 1
 376 366 l 1
 617 0 l 1
 561 0 l 1
 347 326 l 1
 102 0 l 1
 45 0 l 1
 320 367 l 1
 87 722 l 1
EndSplineSet
EndChar

StartChar: Y
Encoding: 89 89 53
Width: 621
Flags: MW
HStem: 0 21G<292 346 292 292> 702 20G<54 109 109 109 540 596 596 596>
VStem: 292 54<0 322 322 322>
LayerCount: 2
Fore
SplineSet
540 722 m 1
 596 722 l 1
 346 336 l 1
 346 0 l 1
 292 0 l 1
 292 322 l 1
 54 722 l 1
 109 722 l 1
 315 385 l 1
 540 722 l 1
EndSplineSet
EndChar

StartChar: Z
Encoding: 90 90 54
Width: 667
Flags: MW
HStem: 9 53<94 631 36 36> 653 53<102 606>
LayerCount: 2
Fore
SplineSet
102 653 m 1
 102 706 l 1
 606 706 l 1
 606 654 l 1
 94 62 l 1
 631 62 l 1
 631 9 l 1
 36 9 l 1
 36 62 l 1
 549 654 l 1
 102 653 l 1
EndSplineSet
EndChar

StartChar: underscore
Encoding: 95 95 55
Width: 710
Flags: MW
HStem: -234 54<20 691 20 691>
LayerCount: 2
Fore
SplineSet
20 -180 m 1
 691 -180 l 1
 691 -234 l 1
 20 -234 l 1
 20 -180 l 1
EndSplineSet
EndChar

StartChar: grave
Encoding: 96 96 56
Width: 333
Flags: MW
HStem: 656 190<77 227 77 281>
VStem: 77 204<656 846>
LayerCount: 2
Fore
SplineSet
227 656 m 1
 77 846 l 1
 133 846 l 1
 281 656 l 1
 227 656 l 1
EndSplineSet
EndChar

StartChar: a
Encoding: 97 97 57
Width: 608
Flags: MW
HStem: -8 53<200.5 267.5> 0 21G<427 481 427 427> 283 40<275.5 351.5> 497 49<224.5 303>
VStem: 59 54<116 203.5 116 214.5> 427 54<0 98 98 98 164 279 279 279 321 337 337 349 0 385.5>
LayerCount: 2
Fore
SplineSet
427 337 m 2xbc
 427 434 358 497 248 497 c 0
 201 497 156 483 119 453 c 1
 88 491 l 1
 134 529 192 546 251 546 c 0
 389 546 481 471 481 349 c 2
 481 0 l 1
 427 0 l 1x7c
 427 98 l 1
 374 34 307 -8 228 -8 c 0
 125 -8 59 53 59 145 c 0
 59 284 195 323 356 323 c 0
 379 323 403 322 427 321 c 1
 427 337 l 2xbc
113 149 m 0
 113 83 165 45 236 45 c 0xbc
 318 45 381 94 427 164 c 1
 427 279 l 1
 396 281 366 283 337 283 c 0
 214 283 113 258 113 149 c 0
EndSplineSet
EndChar

StartChar: b
Encoding: 98 98 58
Width: 595
Flags: MW
HStem: -3 42<261.5 350.5 251.5 369.5> 498 42<274.5 295 295 297> 763 20G<81 135 135 135>
VStem: 81 54<0 66 137 399 461 783> 480 55<203 327.5>
LayerCount: 2
Fore
SplineSet
296 -3 m 0
 227 -3 172 21 135 66 c 1
 135 0 l 1
 81 0 l 1
 81 783 l 1
 135 783 l 1
 135 461 l 1
 178 511 241 540 308 540 c 0
 458 540 535 417 535 268 c 0
 535 113 443 -3 296 -3 c 0
480 263 m 0
 480 392 416 496 297 498 c 1
 295 498 l 2
 227 498 165 459 135 399 c 1
 135 137 l 1
 162 76 218 39 285 39 c 0
 416 39 480 143 480 263 c 0
EndSplineSet
EndChar

StartChar: c
Encoding: 99 99 59
Width: 472
Flags: MW
HStem: -9 53<242.5 331 242.5 332.5> 490 49<242.5 330>
VStem: 61 56<204.5 324 204.5 342>
LayerCount: 2
Fore
SplineSet
117 264 m 0
 117 145 180 44 305 44 c 0
 357 44 403 66 437 106 c 1
 470 69 l 1
 425 18 365 -9 300 -9 c 0
 143 -9 61 114 61 265 c 0
 61 419 151 539 308 539 c 0
 363 539 413 520 455 484 c 1
 428 443 l 1
 393 474 352 490 308 490 c 0
 177 490 117 384 117 264 c 0
EndSplineSet
EndChar

StartChar: d
Encoding: 100 100 60
Width: 627
Flags: MW
HStem: -6 42<257.5 344> 490 49<258 343 234 354.5> 763 20G<482 536 536 536>
VStem: 70 53<199.5 327.5 199.5 346> 483 54<0 48 0 78 0 78>
LayerCount: 2
Fore
SplineSet
323 490 m 0
 193 490 123 391 123 264 c 0
 123 135 198 36 317 36 c 0
 400 36 459 81 483 147 c 1
 483 228 484 308 484 389 c 2
 484 409 l 1
 445 460 386 490 323 490 c 0
303 539 m 0
 383 539 441 507 484 460 c 1
 484 568 483 676 482 783 c 1
 536 783 l 1
 537 619 538 455 538 290 c 0
 538 193 537 96 537 0 c 1
 483 0 l 1
 483 78 l 1
 444 25 381 -6 307 -6 c 0
 155 -6 70 111 70 268 c 0
 70 424 165 539 303 539 c 0
EndSplineSet
EndChar

StartChar: e
Encoding: 101 101 61
Width: 563
Flags: MW
HStem: -8 52<315 341 315 341> 259 45<116 440 116 491 116 440> 489 53<233.5 334>
VStem: 61 55<259 259 259 304 259 351.5> 440 54<304 304>
LayerCount: 2
Fore
SplineSet
283 542 m 0
 421 542 494 443 494 304 c 0
 494 289 493 274 491 259 c 1
 116 259 l 1
 126 135 196 45 315 44 c 0
 367 44 418 63 457 99 c 1
 489 60 l 1
 439 16 374 -8 308 -8 c 0
 147 -8 61 114 61 276 c 0
 61 427 149 542 283 542 c 0
440 304 m 1
 438 411 384 489 284 489 c 0
 183 489 123 410 116 304 c 1
 440 304 l 1
EndSplineSet
EndChar

StartChar: f
Encoding: 102 102 62
Width: 467
Flags: MW
HStem: 0 21G<190 244 190 190> 465 52<29 190 29 190 244 454> 751 53<340.5 386.5 318 392>
VStem: 190 54<0 465 0 465 517 593>
LayerCount: 2
Fore
SplineSet
244 517 m 1
 454 517 l 1
 454 465 l 1
 244 465 l 1
 244 0 l 1
 190 0 l 1
 190 465 l 1
 29 465 l 1
 29 517 l 1
 190 517 l 1
 190 593 l 2
 190 724 265 804 371 804 c 0
 402 804 436 797 471 783 c 1
 452 737 l 1
 427 746 403 751 381 751 c 0
 300 751 244 691 244 593 c 2
 244 517 l 1
EndSplineSet
EndChar

StartChar: g
Encoding: 103 103 63
Width: 587
Flags: MW
HStem: -300 51<212 316.5 212 320.5> 5 44<232 246.5 198 261> 180 48<275 277 275 322.5> 450 48<400 444> 493 46<233.5 299 220 313.5>
VStem: 41 48<-160 -114 -160 -99.5> 72 48<99 143> 75 53<327.5 395.5 319.5 407> 419 49<321 379.5 311 397.5> 479 50<-152.5 -70>
LayerCount: 2
Fore
SplineSet
479 -110 m 0xe4c0
 479 -30 400 6 326 6 c 0
 299 6 273 5 249 5 c 0
 215 5 184 7 158 13 c 1
 116 -14 88 -61 89 -114 c 1
 89 -206 163 -249 261 -249 c 0
 372 -249 479 -195 479 -110 c 0xe4c0
246 -300 m 0
 130 -300 41 -247 41 -131 c 0xf4c0
 41 -68 71 -10 121 26 c 1
 93 42 72 72 72 120 c 0xf2c0
 72 166 98 206 137 226 c 1
 100 257 75 299 75 356 c 0
 75 458 166 539 274 539 c 0xe9c0
 324 539 366 524 400 498 c 1
 574 499 l 1
 574 451 l 1
 444 450 l 1
 460 425 468 397 468 362 c 0
 468 260 377 180 268 180 c 0
 229 180 192 190 161 209 c 1
 136 194 120 166 120 135 c 0xf2c0
 120 63 167 49 229 49 c 0
 264 49 304 53 346 53 c 0
 437 53 529 1 529 -102 c 0
 529 -215 395 -300 246 -300 c 0
128 359 m 0xe9c0
 128 280 200 228 275 228 c 2
 277 228 l 1
 352 229 419 282 419 360 c 0
 419 435 353 493 274 493 c 0
 193 493 128 432 128 359 c 0xe9c0
EndSplineSet
EndChar

StartChar: h
Encoding: 104 104 64
Width: 580
Flags: MW
HStem: 0 21G<87 141 87 87 442 442 442 496> 494 53<275 338> 763 20G<86 141 141 141>
VStem: 86 55<727 783> 442 54<0 0>
LayerCount: 2
Fore
SplineSet
441 337 m 0
 441 420 385 494 291 494 c 0
 232 494 172 460 141 410 c 1
 141 0 l 1
 87 0 l 1
 87 242 87 485 86 727 c 1
 86 783 l 1
 141 783 l 1
 141 473 l 1
 183 519 244 547 306 547 c 0
 429 547 495 448 495 341 c 0
 495 227 495 114 496 0 c 1
 442 0 l 1
 441 112 441 224 441 337 c 0
EndSplineSet
EndChar

StartChar: i
Encoding: 105 105 65
Width: 251
Flags: MW
HStem: 0 21G<98 98 98 153> 513 20G<98 152 152 152> 690 115<97 153 97 153>
VStem: 98 55<0 533>
LayerCount: 2
Fore
SplineSet
97 690 m 1
 97 805 l 1
 153 805 l 1
 153 690 l 1
 97 690 l 1
98 0 m 1
 98 533 l 1
 152 533 l 1
 153 0 l 1
 98 0 l 1
EndSplineSet
EndChar

StartChar: j
Encoding: 106 106 66
Width: 356
Flags: MW
HStem: -300 53<49 84 48 100> 515 20G<171 225 225 225> 683 120<170 226 170 226>
VStem: 171 54<-127 535>
LayerCount: 2
Fore
SplineSet
170 683 m 1
 170 803 l 1
 226 803 l 1
 226 683 l 1
 170 683 l 1
28 -245 m 1
 36 -247 44 -247 52 -247 c 0
 116 -247 171 -195 171 -127 c 2
 171 535 l 1
 225 535 l 1
 225 -127 l 2
 225 -224 147 -300 53 -300 c 0
 45 -300 36 -299 28 -298 c 1
 28 -245 l 1
EndSplineSet
EndChar

StartChar: k
Encoding: 107 107 67
Width: 608
Flags: MW
HStem: 0 21G<118 118 118 172 492 492 492 561> 513 20G<466 536 536 536> 763 20G<118 172 172 172>
VStem: 118 54<0 264 307 783>
LayerCount: 2
Fore
SplineSet
118 0 m 1
 118 783 l 1
 172 783 l 1
 172 307 l 1
 466 533 l 1
 536 533 l 1
 219 286 l 1
 561 0 l 1
 492 0 l 1
 172 264 l 1
 172 0 l 1
 118 0 l 1
EndSplineSet
EndChar

StartChar: l
Encoding: 108 108 68
Width: 274
Flags: MW
HStem: 1 21G<110 110 110 164> 763 20G<109 164 164 164>
VStem: 110 54<1 783>
LayerCount: 2
Fore
SplineSet
110 1 m 1
 109 783 l 1
 164 783 l 1
 164 1 l 1
 110 1 l 1
EndSplineSet
EndChar

StartChar: m
Encoding: 109 109 69
Width: 937
Flags: MW
HStem: 1 20G 494 53<286.5 351.5> 513 20G<96 150 150 150>
VStem: 96 54<463 533> 444 54<300.5 365.5 299.5 400> 790 55<1 348>
LayerCount: 2
Fore
SplineSet
444 360 m 0xdc
 444 440 395 494 308 494 c 0xdc
 243 494 183 459 150 403 c 1
 150 258 150 149 149 0 c 1
 95 0 l 1
 96 159 96 271 96 431 c 2
 96 533 l 1
 150 533 l 1xbc
 150 463 l 1
 190 515 253 547 320 547 c 0
 406 547 463 502 485 442 c 1
 522 506 591 546 665 546 c 0
 790 546 844 460 844 350 c 0
 844 234 844 118 845 1 c 1
 790 1 l 1
 790 348 l 2
 790 431 743 491 653 491 c 0
 587 491 526 455 496 396 c 1
 497 384 498 372 498 359 c 0
 498 240 498 120 497 1 c 1
 443 1 l 1
 444 121 444 241 444 360 c 0xdc
EndSplineSet
EndChar

StartChar: n
Encoding: 110 110 70
Width: 592
Flags: MW
HStem: 0 21G<87 141 87 87 453 453 453 507> 492 52<286 353.5> 513 20G<89 143 143 143>
VStem: 89 54<457 533> 453 54<0 361 361 365 0 400.5>
LayerCount: 2
Fore
SplineSet
453 361 m 2xd8
 453 440 396 492 311 492 c 0xd8
 243 492 179 456 143 399 c 1
 143 266 142 133 141 0 c 1
 87 0 l 1
 88 144 89 287 89 431 c 2
 89 533 l 1
 143 533 l 1xb8
 143 457 l 1
 185 512 251 544 321 544 c 0
 438 544 507 468 507 365 c 2
 507 0 l 1
 453 0 l 1
 453 361 l 2xd8
EndSplineSet
EndChar

StartChar: o
Encoding: 111 111 71
Width: 607
Flags: MW
HStem: -7 55<242.5 360.5 242.5 373.5> 488 51<239.5 357.5>
VStem: 67 54<210 335.5 210 347> 479 54<204.5 270 189.5 331>
LayerCount: 2
Fore
SplineSet
121 275 m 0
 121 145 186 48 299 48 c 0
 422 48 479 141 479 268 c 0
 479 394 414 488 301 488 c 0
 178 488 121 396 121 275 c 0
301 -7 m 0
 143 -7 67 110 67 268 c 0
 67 426 153 539 301 539 c 0
 454 539 534 425 533 270 c 1
 533 109 446 -7 301 -7 c 0
EndSplineSet
EndChar

StartChar: p
Encoding: 112 112 72
Width: 624
Flags: MW
HStem: -300 21G<87 141 87 87> -6 46<265.5 354.5 257 374.5> 500 40<298 376.5> 513 20G<87 141 141 141>
VStem: 89 55<16 49 -9 103 103 130.5> 502 53<210 337.5>
LayerCount: 2
Fore
SplineSet
296 -6 m 0xec
 235 -6 185 13 144 49 c 1
 144 -67 143 -184 141 -300 c 1
 87 -300 l 1
 89 -173 89 -47 89 79 c 0
 89 182 89 286 88 389 c 0
 88 437 88 485 87 533 c 1
 141 533 l 1xdc
 142 503 142 474 142 444 c 1
 188 502 261 540 335 540 c 0
 477 540 555 413 555 274 c 0
 555 112 453 -6 296 -6 c 0xec
321 500 m 0xec
 241 500 169 444 143 371 c 1
 143 293 144 215 144 137 c 2
 144 103 l 1
 182 61 229 40 285 40 c 0
 424 40 502 142 502 278 c 0
 502 397 432 500 321 500 c 0xec
EndSplineSet
EndChar

StartChar: q
Encoding: 113 113 73
Width: 633
Flags: MW
HStem: -300 21G<487 541 487 487> -9 42<287.5 369> 495 43<269.5 357 247 365.5>
VStem: 65 56<201.5 335 201.5 347> 487 54<-300 34 34 34 76 422 422 422 474 533 -300 533>
LayerCount: 2
Fore
SplineSet
321 538 m 0
 393 538 445 515 487 474 c 1
 487 533 l 1
 541 533 l 1
 541 -300 l 1
 487 -300 l 1
 487 34 l 1
 444 6 395 -9 343 -9 c 0
 176 -9 65 106 65 272 c 0
 65 422 173 538 321 538 c 0
121 274 m 0
 121 129 217 33 358 33 c 0
 406 33 449 47 487 76 c 1
 487 422 l 1
 450 470 396 495 335 495 c 0
 204 495 121 396 121 274 c 0
EndSplineSet
EndChar

StartChar: r
Encoding: 114 114 74
Width: 401
Flags: MW
HStem: 0 21G<86 140 86 86> 489 52<309.5 362.5 309.5 364> 513 20G<86 140 140 140>
VStem: 86 54<0 379 447 533>
LayerCount: 2
Fore
SplineSet
360 489 m 0xd0
 258 489 187 442 140 379 c 1
 140 0 l 1
 86 0 l 1
 86 533 l 1
 140 533 l 1xb0
 140 447 l 1
 190 499 262 541 357 541 c 0
 368 541 378 540 389 539 c 1
 383 488 l 1
 375 489 368 489 360 489 c 0xd0
EndSplineSet
EndChar

StartChar: s
Encoding: 115 115 75
Width: 479
Flags: MW
HStem: -6 50<186.5 256 186.5 265.5> 492 47<213.5 273.5>
VStem: 72 53<362 429.5 362 443> 367 54<101 168>
LayerCount: 2
Fore
SplineSet
248 492 m 0
 179 492 125 458 125 401 c 0
 125 323 199 306 266 285 c 0
 348 260 421 225 421 136 c 0
 421 41 322 -6 209 -6 c 0
 139 -6 80 12 21 52 c 1
 48 95 l 1
 101 60 155 44 218 44 c 0
 294 44 367 66 367 136 c 0
 367 200 300 223 231 244 c 0
 150 269 72 305 72 402 c 0
 72 484 148 539 246 539 c 0
 310 539 360 523 409 491 c 1
 386 447 l 1
 343 478 299 492 248 492 c 0
EndSplineSet
EndChar

StartChar: t
Encoding: 116 116 76
Width: 435
Flags: MW
HStem: -6 46<272.5 307> 457 52<26 160 26 160>
VStem: 160 54<143 175 175 457 509 632 632 632>
LayerCount: 2
Fore
SplineSet
26 457 m 1
 26 509 l 1
 160 509 l 1
 160 632 l 1
 214 664 l 1
 214 509 l 1
 421 510 l 1
 421 458 l 1
 214 457 l 1
 214 175 l 2
 214 102 240 40 305 40 c 0
 336 40 367 49 394 65 c 1
 411 22 l 1
 371 4 329 -6 285 -6 c 0
 206 -6 160 59 160 143 c 2
 160 457 l 1
 26 457 l 1
EndSplineSet
EndChar

StartChar: u
Encoding: 117 117 77
Width: 592
Flags: MW
HStem: -11 44<244.5 311> 0 21G<451 505 451 451> 513 20G<92 146 146 146 451 505 505 505>
VStem: 92 54<170 188 188 533> 451 54<0 76 76 76 145 533 0 533>
LayerCount: 2
Fore
SplineSet
146 188 m 2xb8
 146 100 196 33 293 33 c 0xb8
 365 33 428 79 451 145 c 1
 451 533 l 1
 505 533 l 1
 505 0 l 1
 451 0 l 1x78
 451 76 l 1
 410 23 346 -11 276 -11 c 0
 159 -11 92 67 92 170 c 2
 92 533 l 1
 146 533 l 1
 146 188 l 2xb8
EndSplineSet
EndChar

StartChar: v
Encoding: 118 118 78
Width: 564
Flags: MW
HStem: 0 21G<247 299 247 247> 513 20G<41 97 97 97 461 517 517 517>
LayerCount: 2
Fore
SplineSet
41 533 m 1
 97 533 l 1
 270 56 l 1
 461 533 l 1
 517 533 l 1
 299 0 l 1
 247 0 l 1
 41 533 l 1
EndSplineSet
EndChar

StartChar: w
Encoding: 119 119 79
Width: 930
Flags: MW
HStem: 0 21G<260 312 260 260 604 656 604 604> 513 20G<60 115 115 115 436 488 488 488 828 885 885 885>
LayerCount: 2
Fore
SplineSet
60 533 m 1
 115 533 l 1
 279 57 l 1
 436 533 l 1
 488 533 l 1
 628 57 l 1
 828 533 l 1
 885 533 l 1
 656 0 l 1
 604 0 l 1
 461 452 l 1
 312 0 l 1
 260 0 l 1
 60 533 l 1
EndSplineSet
EndChar

StartChar: x
Encoding: 120 120 80
Width: 569
Flags: MW
HStem: 0 21G<52 110 52 52 443 506 443 443> 513 20G<90 153 153 153 450 507 507 507>
LayerCount: 2
Fore
SplineSet
90 533 m 1
 153 533 l 1
 290 326 l 1
 450 533 l 1
 507 533 l 1
 321 280 l 1
 506 0 l 1
 443 0 l 1
 290 231 l 1
 110 0 l 1
 52 0 l 1
 260 277 l 1
 90 533 l 1
EndSplineSet
EndChar

StartChar: y
Encoding: 121 121 81
Width: 573
Flags: MW
HStem: -300 21G<68 126 68 68> 513 20G<49 107 107 107 470 524 524 524>
LayerCount: 2
Fore
SplineSet
49 533 m 1
 107 533 l 1
 278 134 l 1
 470 533 l 1
 524 533 l 1
 126 -300 l 1
 68 -300 l 1
 252 81 l 1
 49 533 l 1
EndSplineSet
EndChar

StartChar: z
Encoding: 122 122 82
Width: 484
Flags: MW
HStem: 0 52<78 470 17 17> 465 51<63 63 63 398>
LayerCount: 2
Fore
SplineSet
63 465 m 1
 63 516 l 1
 460 517 l 1
 460 465 l 1
 78 52 l 1
 470 52 l 1
 470 0 l 1
 17 0 l 1
 17 52 l 1
 398 465 l 1
 63 465 l 1
EndSplineSet
EndChar

StartChar: bar
Encoding: 124 124 83
Width: 71
Flags: MW
HStem: -21 20G<9 63 63 63> 1 21G<9 9 9 63> 512 20G<9 63 63 63> 535 21G<9 63 9 9>
VStem: 9 54<-377 -1 -377 -1 1 532 535 847>
LayerCount: 2
Fore
SplineSet
9 847 m 1
 63 847 l 1
 63 535 l 1
 9 535 l 1
 9 847 l 1
9 1 m 1
 9 532 l 1
 63 532 l 1
 63 1 l 1
 9 1 l 1
9 -377 m 1
 9 -1 l 1
 63 -1 l 1
 63 -377 l 1
 9 -377 l 1
EndSplineSet
EndChar
